<svg width="32" height="32" viewBox="0 0 32 32" fill="none" xmlns="http://www.w3.org/2000/svg">
<path d="M24.9876 11.7606C25.374 11.7606 25.747 11.8195 26.0981 11.9285L29.2969 8.72964L27.806 7.23877L23.2842 11.7606H24.9876Z" fill="white"/>
<path d="M31.451 10.8832L30.623 10.0552L27.7261 12.9521C28.353 13.6226 28.7378 14.5221 28.7378 15.5103V16.2479L31.451 13.5348C32.1832 12.8026 32.1832 11.6154 31.451 10.8832Z" fill="white"/>
<path d="M26.4804 5.91281L21.1168 0.549187C20.3845 -0.183062 19.1973 -0.183062 18.4652 0.549187L7.25391 11.7604H20.6328L26.4804 5.91281Z" fill="white"/>
<path d="M4.9209 19.5791H7.77727V21.6875H4.9209V19.5791Z" fill="white"/>
<path d="M24.9877 13.6353H1.875C0.839437 13.6353 0 14.4747 0 15.5103V30.1248C0 31.1604 0.839437 31.9998 1.875 31.9998H24.9877C26.0232 31.9998 26.8627 31.1604 26.8627 30.1248V15.5103C26.8627 14.4747 26.0232 13.6353 24.9877 13.6353ZM3.04588 17.7038H9.65225V23.5622H3.04588V17.7038ZM6.69344 27.9312H2.98756V26.0562H6.69344V27.9312ZM12.4206 27.9312H8.71475V26.0562H12.4206V27.9312ZM18.1479 27.9312H14.4421V26.0562H18.1479V27.9312ZM23.8752 27.9312H20.1693V26.0562H23.8752V27.9312Z" fill="white"/>
</svg>
