<svg width="15" height="15" viewBox="0 0 15 15" fill="none" xmlns="http://www.w3.org/2000/svg">
<path d="M0 3.70357V11.2969C0 12.3432 0.853559 13.1967 1.89986 13.1967H8.03692C9.08321 13.1967 9.93677 12.3432 9.93677 11.2969V10.067C9.93677 9.85898 9.76851 9.69072 9.56047 9.69072C9.35244 9.69072 9.18417 9.85898 9.18417 10.067V11.2969C9.18417 11.9302 8.66714 12.4472 8.03386 12.4472H1.89986C1.26657 12.4472 0.749541 11.9302 0.749541 11.2969V3.70357C0.749541 3.07028 1.26657 2.55325 1.89986 2.55325H8.03692C8.6702 2.55325 9.18723 3.07028 9.18723 3.70357V4.93343C9.18723 5.14146 9.3555 5.30973 9.56353 5.30973C9.77157 5.30973 9.93983 5.14146 9.93983 4.93343V3.70357C9.93983 2.65727 9.08627 1.80371 8.03998 1.80371H1.89986C0.853559 1.80371 0 2.65421 0 3.70357Z" fill="black"/>
<path d="M11.7898 10.3301C11.8633 10.4036 11.9581 10.4403 12.056 10.4403C12.1539 10.4403 12.2487 10.4036 12.3222 10.3301L14.889 7.76333C15.0358 7.61648 15.0358 7.38091 14.889 7.23406L12.3222 4.66727C12.1753 4.52042 11.9398 4.52042 11.7929 4.66727C11.6461 4.81411 11.6461 5.04968 11.7929 5.19653L13.7203 7.12393H6.68685C6.47881 7.12393 6.31055 7.29219 6.31055 7.50023C6.31055 7.70826 6.47881 7.87653 6.68685 7.87653H13.7172L11.7898 9.80392C11.643 9.94771 11.643 10.1863 11.7898 10.3301Z" fill="black"/>
</svg>
