<svg width="84" height="84" viewBox="0 0 84 84" fill="none" xmlns="http://www.w3.org/2000/svg">
<path d="M42 0C18.804 0 0 18.804 0 42C0 65.196 18.804 84 42 84C65.196 84 84 65.196 84 42C83.9731 18.8152 65.1848 0.0269274 42 0ZM42 81.2903C20.3006 81.2903 2.70968 63.6994 2.70968 42C2.70968 20.3006 20.3006 2.70968 42 2.70968C63.6994 2.70968 81.2903 20.3006 81.2903 42C81.2664 63.6896 63.6896 81.2664 42 81.2903Z" fill="#1FCD7E"/>
<path d="M62.7195 26.8163L35.2258 54.3101L21.2804 40.3647C20.7422 39.8448 19.8846 39.8597 19.3647 40.3979C18.8576 40.9229 18.8576 41.7553 19.3647 42.2805L34.2679 57.1837C34.797 57.7126 35.6546 57.7126 36.1836 57.1837L64.6352 28.7321C65.1552 28.1939 65.1403 27.3362 64.6021 26.8163C64.0769 26.3093 63.2445 26.3093 62.7195 26.8163Z" fill="#1FCD7E"/>
</svg>
