<svg width="32" height="32" viewBox="0 0 32 32" fill="none" xmlns="http://www.w3.org/2000/svg">
<path d="M29.6478 7.48854C29.3462 7.11579 28.9955 6.77544 28.6069 6.47168C28.6588 7.43549 28.5695 8.46234 28.3373 9.54923C27.7035 12.5187 26.1877 15.042 23.9539 16.8459C21.7221 18.6485 18.935 19.6014 15.8945 19.6014H11.4605L10.0253 26.3256C9.74339 27.6451 8.55989 28.6026 7.21083 28.6026H5.21208L4.85219 30.2547C4.75975 30.6802 4.86468 31.1246 5.1378 31.4636C5.41077 31.8027 5.82291 31.9999 6.25834 31.9999H11.1445C11.8234 31.9999 12.4101 31.5253 12.5517 30.8614L14.23 22.9985H19.8281C22.536 22.9985 25.0103 22.1561 26.9837 20.5625C28.9579 18.9683 30.2996 16.728 30.8638 14.0846C31.4352 11.4117 31.026 9.19242 29.6478 7.48854Z" fill="#ABABAB"/>
<path d="M8.61821 26.0252L10.2964 18.1625H15.8946C18.6024 18.1625 21.0768 17.3201 23.0501 15.7264C25.0242 14.1322 26.3661 11.8919 26.9304 9.24852C27.5015 6.57554 27.0925 4.35636 25.7141 2.65248C24.391 1.01635 22.1292 0 19.8119 0H7.61501C6.93835 0 6.3531 0.471508 6.20901 1.13259L0.918676 25.4188C0.826094 25.8442 0.931021 26.2886 1.20428 26.6277C1.47711 26.9667 1.8891 27.1638 2.32468 27.1638H7.21096C7.88989 27.1638 8.47625 26.6893 8.61821 26.0252ZM13.0962 5.53223H16.9338C17.8367 5.53223 18.644 5.91056 19.1488 6.57039C19.685 7.2713 19.8418 8.24047 19.5789 9.22941C19.5755 9.24198 19.5724 9.25454 19.5693 9.26733C19.0865 11.3049 17.079 12.9626 15.0946 12.9626H11.4171L13.0962 5.53223Z" fill="#ABABAB"/>
</svg>
